<?xml version="1.0" encoding="UTF-8"?>
<svg width="512px" height="512px" enable-background="new 0 0 512 512" version="1.1" viewBox="0 0 512 512" xml:space="preserve" xmlns="http://www.w3.org/2000/svg">
<path d="m349.85 343.15c-49.876 49.916-131.08 49.916-181 0-49.916-49.917-49.916-131.12 0-181.02 13.209-13.187 29.312-23.25 47.832-29.812 5.834-2.042 12.293-0.562 16.625 3.792 4.376 4.375 5.855 10.833 3.793 16.625-12.542 35.375-4 73.666 22.249 99.917 26.209 26.228 64.501 34.75 99.917 22.25 5.792-2.062 12.271-0.583 16.625 3.792 4.376 4.333 5.834 10.812 3.771 16.625-6.521 18.52-16.604 34.623-29.812 47.832zm-158.38-158.4c-37.438 37.438-37.438 98.354 0 135.77 40 40.021 108.12 36.417 143-8.167-35.959 2.25-71.375-10.729-97.75-37.084-26.375-26.354-39.333-61.771-37.084-97.729-2.874 2.251-5.604 4.647-8.166 7.209z" fill="#f0f0f0"/>
</svg>