<?xml version="1.0" encoding="UTF-8"?>
<svg width="512px" height="512px" enable-background="new 0 0 512 512" version="1.1" viewBox="0 0 512 512" xml:space="preserve" xmlns="http://www.w3.org/2000/svg">
<g fill="#f0f0f0">
<g fill="#f0f0f0">
<path d="m417.04 166.08c-23.979-24.542-57.125-38.771-91.73-38.771-34.562 0-67.688 14.229-91.665 38.771-52.813 2.459-95.021 46.188-95.021 99.584 0 54.958 44.709 99.666 99.688 99.666 5.834 0 11.604-0.5 17.271-1.499 20.729 13.541 44.917 20.854 69.729 20.854 24.854 0 49.063-7.313 69.772-20.854 5.707 0.999 11.458 1.499 17.291 1.499 54.937 0 99.625-44.708 99.625-99.666-2e-3 -53.396-42.19-97.125-94.96-99.584zm-4.667 167.25c-8.312 0-16.375-1.499-24-4.417-17.5 15.25-39.75 23.772-63.063 23.772-23.249 0-45.499-8.522-62.999-23.772-7.625 2.918-15.75 4.417-24 4.417-37.312 0-67.688-30.375-67.688-67.666 0-37.313 30.375-67.688 67.688-67.688 3.188 0 6.375 0.229 9.521 0.688 18.104-24.583 46.541-39.354 77.478-39.354 30.938 0 59.438 14.771 77.501 39.354 3.125-0.458 6.312-0.688 9.562-0.688 37.312 0 67.625 30.375 67.625 67.688 0 37.291-30.312 67.666-67.625 67.666zm-268.38 18.667h-128c-8.833 0-16 7.167-16 16s7.167 16 16 16h128c8.833 0 16-7.167 16-16s-7.167-16-16-16zm-128-32h64c8.833 0 16-7.167 16-16s-7.167-16-16-16h-64c-8.833 0-16 7.167-16 16s7.167 16 16 16zm32-64h64c8.833 0 16-7.167 16-16s-7.167-16-16-16h-64c-8.833 0-16 7.167-16 16s7.167 16 16 16z" clip-rule="evenodd" fill="#f0f0f0" fill-rule="evenodd"/>
</g>
</g>
</svg>