<?xml version="1.0" encoding="UTF-8"?>
<svg width="512px" height="512px" enable-background="new 0 0 512 512" version="1.1" viewBox="0 0 512 512" xml:space="preserve" xmlns="http://www.w3.org/2000/svg"><g fill="#f0f0f0">
<path d="m448 415h-384c-8.833 0-16 7.167-16 16s7.167 16 16 16h384c8.833 0 16-7.167 16-16s-7.167-16-16-16z"/><path d="m448 351h-384c-8.833 0-16 7.167-16 16s7.167 16 16 16h384c8.833 0 16-7.167 16-16s-7.167-16-16-16z"/><path d="m448 287h-384c-8.833 0-16 7.167-16 16s7.167 16 16 16h384c8.833 0 16-7.167 16-16s-7.167-16-16-16z"/></g><g fill="#ff751b"><path d="m145.62 255h32c-1.062-5.167-1.625-10.521-1.625-16 0-44.188 35.812-80 80-80s80 35.812 80 80c0 5.479-0.562 10.833-1.625 16h32c0.792-5.271 1.625-10.521 1.625-16 0-61.75-50.25-112-112-112s-112 50.25-112 112c0 5.479 0.875 10.729 1.625 16z"/><path d="m131.54 137.17c6.251 6.25 16.376 6.25 22.625 0 6.251-6.25 6.251-16.375 0-22.625l-22.625-22.625c-6.25-6.25-16.374-6.25-22.625 0-6.25 6.25-6.25 16.375 0 22.625z"/><path d="m400 239c0 8.833 7.167 16 16 16h32c8.833 0 16-7.167 16-16s-7.167-16-16-16h-32c-8.833 0-16 7.167-16 16z"/><path d="m64 255h32c8.833 0 16-7.167 16-16s-7.167-16-16-16h-32c-8.833 0-16 7.167-16 16s7.167 16 16 16z"/><path d="m380.44 137.17 22.625-22.625c6.249-6.25 6.249-16.375 0-22.625-6.25-6.25-16.375-6.25-22.625 0l-22.625 22.625c-6.25 6.25-6.25 16.375 0 22.625s16.375 6.25 22.625 0z"/><path d="m256 95c8.833 0 16-7.167 16-16v-32c0-8.833-7.167-16-16-16s-16 7.167-16 16v32c0 8.833 7.167 16 16 16z"/></g>
</svg>
