<?xml version="1.0" encoding="UTF-8"?>
<svg width="512px" height="512px" enable-background="new 0 0 512 512" version="1.1" viewBox="0 0 512 512" xml:space="preserve" xmlns="http://www.w3.org/2000/svg">
<g>
<path d="m417.04 70.792c-23.98-24.563-57.125-38.792-91.73-38.792-34.562 0-67.688 14.229-91.665 38.792-52.813 2.438-95.021 46.167-95.021 99.542 0 54.978 44.709 99.708 99.688 99.708 5.834 0 11.604-0.501 17.271-1.5 20.729 13.521 44.917 20.833 69.729 20.833 24.854 0 49.063-7.312 69.772-20.833 5.707 0.999 11.458 1.5 17.291 1.5 54.938 0 99.625-44.73 99.625-99.708-2e-3 -53.376-42.19-97.126-94.96-99.542z" fill="#f0f0f0"/><path d="m352 448c0 17.688 14.312 32 32 32s32-14.312 32-32-32-64-32-64-32 46.312-32 64z" fill="#174cea"/><path d="m224 384c0 17.688 14.312 32 32 32s32-14.312 32-32-32-64-32-64-32 46.312-32 64z" fill="#174cea"/><g fill="#f0f0f0"><path d="m48 160.69h64c8.833 0 16-7.146 16-16s-7.167-16-16-16h-64c-8.833 0-16 7.146-16 16s7.167 16 16 16z"/><path d="m16 224.69h64c8.833 0 16-7.146 16-16s-7.167-16-16-16h-64c-8.833 0-16 7.146-16 16s7.167 16 16 16z"/><path d="m144 256.69h-128c-8.833 0-16 7.146-16 16 0 8.853 7.167 16 16 16h128c8.833 0 16-7.147 16-16 0-8.854-7.167-16-16-16z"/></g><path d="m412.38 238.04c-8.312 0-16.375-1.5-24-4.458-17.5 15.25-39.75 23.792-63.063 23.792-23.249 0-45.499-8.542-62.999-23.792-7.625 2.959-15.75 4.458-24 4.458-37.312 0-67.688-30.375-67.688-67.708 0-37.292 30.375-67.667 67.688-67.667 3.188 0 6.375 0.25 9.521 0.688 18.104-24.584 46.541-39.355 77.478-39.355 30.938 0 59.438 14.771 77.501 39.354 3.125-0.438 6.312-0.688 9.562-0.688 37.312 0 67.625 30.375 67.625 67.667 0 37.334-30.312 67.709-67.625 67.709z" fill="#fff"/>
</g>
</svg>