<?xml version="1.0" encoding="UTF-8"?>
<svg width="512px" height="512px" enable-background="new 0 0 512 512" version="1.1" viewBox="0 0 512 512" xml:space="preserve" xmlns="http://www.w3.org/2000/svg">
<path d="m192 352 32 32-32 96 96-96-32-32 32-96z" fill="#d8d231"/><path d="m400 64c-5.312 0-10.562 0.375-15.792 1.125-29.874-40.708-77.02-65.125-128.21-65.125s-98.312 24.417-128.21 65.125c-5.23-0.75-10.48-1.125-15.792-1.125-61.75 0-112 50.25-112 112s50.25 112 112 112c13.688 0 27.084-2.5 39.709-7.333 12.291 10.708 26.25 18.958 40.916 25.416l24.916-24.874c-23.458-7.626-44.166-21.271-59.604-39.876-12.999 9.167-28.812 14.667-45.937 14.667-44.188 0-80-35.812-80-80s35.812-80 80-80c10.812 0 21.062 2.208 30.438 6.083 21.229-41.416 63.853-70.083 113.56-70.083s92.334 28.667 113.54 70.083c9.397-3.875 19.668-6.083 30.459-6.083 44.188 0 80 35.812 80 80s-35.812 80-80 80c-17.125 0-32.916-5.5-45.938-14.667-10.375 12.521-23.312 22.667-37.625 30.584l-13.437 40.333c20.875-6.562 40.5-16.938 57.291-31.583 12.625 4.833 26.021 7.333 39.709 7.333 61.75 0 112-50.25 112-112s-50.25-112-112-112z" fill="#f0f0f0"/>
</svg>