<?xml version="1.0" encoding="UTF-8"?>
<svg width="512px" height="512px" enable-background="new 0 0 512 512" version="1.1" viewBox="0 0 512 512" xml:space="preserve" xmlns="http://www.w3.org/2000/svg">
<path d="m256 144c-61.75 0-112 50.25-112 112s50.25 112 112 112 112-50.25 112-112-50.25-112-112-112zm0 192c-44.188 0-80-35.812-80-80s35.812-80 80-80 80 35.812 80 80-35.812 80-80 80zm0-224c8.833 0 16-7.167 16-16v-32c0-8.833-7.167-16-16-16s-16 7.167-16 16v32c0 8.833 7.167 16 16 16zm0 288c-8.833 0-16 7.167-16 16v32c0 8.833 7.167 16 16 16s16-7.167 16-16v-32c0-8.833-7.167-16-16-16zm124.44-245.83 22.625-22.625c6.25-6.25 6.25-16.375 0-22.625s-16.375-6.25-22.625 0l-22.625 22.625c-6.25 6.25-6.25 16.375 0 22.625 6.249 6.25 16.375 6.25 22.625 0zm-248.88 203.67-22.625 22.625c-6.25 6.249-6.25 16.374 0 22.624s16.375 6.25 22.625 0l22.625-22.624c6.25-6.271 6.25-16.376 0-22.625-6.249-6.251-16.375-6.272-22.625 0zm-19.562-101.83c0-8.833-7.167-16-16-16h-32c-8.833 0-16 7.167-16 16s7.167 16 16 16h32c8.833 0 16-7.167 16-16zm336-16h-32c-8.833 0-16 7.167-16 16s7.167 16 16 16h32c8.833 0 16-7.167 16-16s-7.167-16-16-16zm-316.46-85.833c6.251 6.25 16.376 6.25 22.625 0 6.251-6.25 6.251-16.375 0-22.625l-22.625-22.625c-6.25-6.25-16.374-6.25-22.625 0-6.25 6.25-6.25 16.375 0 22.625l22.625 22.625zm248.92 203.64c-6.271-6.25-16.376-6.25-22.625 0-6.251 6.25-6.271 16.375 0 22.625l22.625 22.625c6.249 6.25 16.374 6.25 22.624 0s6.25-16.374 0-22.625l-22.624-22.625z" clip-rule="evenodd" fill="#ff751b" fill-rule="evenodd"/>
</svg>