<?xml version="1.0" encoding="UTF-8"?>
<svg width="512px" height="512px" enable-background="new 0 0 512 512" version="1.1" viewBox="0 0 512 512" xml:space="preserve" xmlns="http://www.w3.org/2000/svg">
<path d="m495 223h-81.625c-8.063-71.792-68.437-128-142.38-128-49.812 0-93.75 25.458-119.62 64h-104.38c-8.833 0-16 7.167-16 16s7.167 16 16 16h88.833c-3.624 10.208-5.979 20.896-7.208 32h-49.625c-8.833 0-16 7.167-16 16s7.167 16 16 16h49.625c1.229 11.084 3.584 21.812 7.208 32h-85.917c-10.457 0-18.916 7.167-18.916 16s8.459 16 18.916 16h101.46c25.875 38.562 69.812 64 119.62 64 49.812 0 93.75-25.438 119.62-64h37.46c10.457 0 18.916-7.167 18.916-16s-8.459-16-18.916-16h-21.917c3.624-10.188 5.958-20.916 7.208-32h81.625c8.833 0 16-7.167 16-16s-7.167-16-16-16zm-324.77-32h100.77c8.833 0 16-7.167 16-16s-7.167-16-16-16h-78.146c20.209-19.729 47.729-32 78.146-32 56.291 0 102.54 41.875 110.38 96h-220.75c1.625-11.312 4.834-22.042 9.604-32zm100.77 160c-30.417 0-57.938-12.291-78.146-32h156.27c-20.187 19.709-47.708 32-78.125 32zm100.75-64h-201.52c-4.77-9.958-7.979-20.688-9.604-32h220.75c-1.625 11.312-4.834 22.042-9.625 32z" fill="#f0f0f0"/>
</svg>
